<svg t="1600067399535" class="icon" viewBox="0 0 1024 1024" version="1.1" xmlns="http://www.w3.org/2000/svg" p-id="5142" width="16" height="16"><path d="M512 1024C229.241263 1024 0 794.758737 0 512S229.241263 0 512 0s512 229.241263 512 512-229.241263 512-512 512z m179.738947-259.557053c1.616842 0 3.233684 0 4.850527-2.694736-4.850526 2.694737-8.892632 2.694737-13.743158 2.694736h8.892631z m-23.44421-157.184c-12.126316 0-21.827368 9.377684-21.827369 21.072842 0 11.695158 9.701053 21.072842 21.827369 21.072843 12.126316 0 21.827368-9.377684 21.827368-21.072843a21.369263 21.369263 0 0 0-21.827368-21.072842z m14.551579-59.28421c-54.972632 0-98.627368 42.900211-98.627369 95.178105s43.654737 94.396632 98.627369 94.396632c54.164211 0 98.627368-42.118737 98.627368-95.178106 0-52.277895-44.463158-94.396632-98.627368-94.396631z m47.696842 150.554947c-3.233684 0-5.658947-1.536-8.084211-3.098947l-32.336842-30.450526c-6.467368 3.907368-13.743158 6.251789-21.827368 6.251789-24.252632 0-43.654737-18.728421-43.654737-42.118737 0-23.417263 19.402105-42.118737 43.654737-42.118737 24.252632 0 43.654737 18.701474 43.654737 42.118737 0 7.814737-2.425263 14.821053-6.467369 21.072842l32.336842 30.423579c1.616842 1.536 3.233684 4.661895 3.233685 7.814737a10.509474 10.509474 0 0 1-10.509474 10.105263zM385.347368 356.055579c12.126316 0 25.869474-13.258105 25.869474-24.953263v-36.648421c0-11.722105-8.084211-24.980211-25.869474-24.980211-14.551579 0-25.869474 13.258105-25.869473 24.953263v36.675369c0.808421 11.695158 14.551579 24.953263 25.869473 24.953263z m114.79579 0c21.018947 0 25.869474-13.258105 25.869474-24.953263v-36.648421c0-11.722105-7.275789-24.980211-25.869474-24.980211-17.785263 0-25.869474 13.258105-25.869474 24.953263v36.675369c0.808421 11.695158 9.701053 24.953263 25.869474 24.953263z m114.795789 0c16.976842 0 25.869474-13.258105 25.869474-24.953263v-36.648421a25.007158 25.007158 0 0 0-25.869474-24.980211c-14.551579 0-25.869474 13.258105-25.869473 24.953263v36.675369c0.808421 11.695158 14.551579 24.953263 25.869473 24.953263z m76.8 407.605895c1.616842 0 3.233684 0 4.850527-2.694737-4.850526 2.694737-8.892632 2.694737-13.743158 2.694737h8.892631z m-132.581052-120.508632c0-65.536 55.781053-119.376842 123.688421-119.376842 12.126316 0 24.252632 1.589895 35.570526 4.688842l-0.808421-184.858947c0-11.722105-13.743158-24.980211-25.869474-24.980211h-25.869473v24.953263c0 23.417263-26.677895 36.648421-50.930527 36.648421-24.252632 0-50.930526-14.012632-50.930526-36.648421v-24.953263h-12.934737v24.953263c0 23.417263-26.677895 36.648421-50.930526 36.648421-38.804211 0-50.930526-25.707789-50.930526-49.125052v-12.476632h-12.934737v12.476632c0 23.417263-19.402105 49.152-52.547369 49.152-24.252632 0-50.122105-17.165474-50.122105-49.152v-12.476632h-11.317895c-12.126316 0-25.869474 13.258105-25.869473 24.953263v390.844632c0 11.695158 13.743158 28.079158 25.869473 28.079158h360.55579c-68.715789-0.781474-123.688421-53.813895-123.688421-119.349895z m-185.936842-188.793263s265.970526 0.808421 266.778947 0c12.126316-0.781474 26.677895 7.006316 26.677895 24.98021 0 16.357053-13.743158 24.953263-25.869474 24.953264h-267.587368c-12.126316 0-25.869474-6.251789-25.869474-24.953264 0-16.384 13.743158-24.980211 25.869474-24.98021z m114.795789 245.76h-114.795789c-9.701053 0-25.869474-5.470316-25.869474-24.980211 0-14.821053 15.36-25.734737 25.869474-25.734736l114.795789 1.536c9.701053 0 25.869474 5.470316 25.869474 24.98021-0.808421 14.821053-16.168421 24.171789-25.869474 24.17179z m25.061053-98.304h-139.856842c-12.126316 0-25.869474-7.814737-25.869474-24.980211 0-18.728421 13.743158-24.953263 25.869474-24.953263h140.665263c12.126316 0 25.869474 9.350737 25.869473 24.953263-0.808421 12.476632-14.551579 24.980211-26.677894 24.980211z" p-id="5143" fill="#17B3A3"></path></svg>