<svg t="1602209760409" class="icon" viewBox="0 0 1024 1024" version="1.1" xmlns="http://www.w3.org/2000/svg" p-id="15721" width="16" height="16"><path d="M511.999628 785.650036l224.088436-219.806254c59.354764-58.181818 92.5696-136.843636 92.420655-218.782255C828.508719 176.090764 686.9733 37.236364 511.999628 37.236364S195.490537 176.090764 195.490537 347.042909c0 83.111564 33.5872 161.010036 92.439272 218.819491L511.999628 785.650036zM511.999628 0c195.360582 0 353.745455 155.350109 353.745454 347.042909 0.167564 91.973818-37.087418 180.224-103.591563 245.387636L511.999628 837.818182 261.845737 592.430545C197.873664 529.594182 158.254173 442.852073 158.254173 347.042909 158.254173 155.368727 316.639046 0 511.999628 0z" fill="#13227a" p-id="15722"></path><path d="M511.999628 484.072727a130.327273 130.327273 0 1 0 0-260.654545 130.327273 130.327273 0 0 0 0 260.654545z m0 37.236364a167.563636 167.563636 0 1 1 0-335.127273 167.563636 167.563636 0 0 1 0 335.127273z" fill="#13227a" p-id="15723"></path><path d="M511.999628 353.745455m-130.327273 0a130.327273 130.327273 0 1 0 260.654545 0 130.327273 130.327273 0 1 0-260.654545 0Z" fill="#13227a" p-id="15724"></path><path d="M714.490973 745.136873C805.943482 771.742255 865.745082 815.867345 865.745082 865.801309c0 81.268364-158.384873 147.139491-353.745454 147.139491S158.254173 947.069673 158.254173 865.801309C158.254173 815.606691 218.688791 771.2768 310.923264 744.727273l10.314473 35.784145C240.602391 803.728291 195.490537 838.730473 195.490537 865.801309c0 51.758545 139.766691 109.903127 316.509091 109.903127s316.509091-58.144582 316.509091-109.903127c0-26.884655-44.553309-61.663418-124.406691-84.898909l10.388945-35.746909z m0 0C805.943482 771.742255 865.745082 815.867345 865.745082 865.801309c0 81.268364-158.384873 147.139491-353.745454 147.139491S158.254173 947.069673 158.254173 865.801309C158.254173 815.606691 218.688791 771.2768 310.923264 744.727273l10.314473 35.784145C240.602391 803.728291 195.490537 838.730473 195.490537 865.801309c0 51.758545 139.766691 109.903127 316.509091 109.903127s316.509091-58.144582 316.509091-109.903127c0-26.884655-44.553309-61.663418-124.406691-84.898909l10.388945-35.746909z" fill="#13227a" p-id="15725"></path></svg>