<svg t="1602506644703" class="icon" viewBox="0 0 1055 1024" version="1.1" xmlns="http://www.w3.org/2000/svg" p-id="4594" width="16" height="16"><path d="M903.634075 1024H232.603772a153.832727 153.832727 0 0 1-151.738182-156.439273v-63.984485H28.734681A28.796121 28.796121 0 0 1 0.341954 770.389333a31.728485 31.728485 0 0 1 28.392727-33.171394h52.130909V631.932121H28.734681A28.796121 28.796121 0 0 1 0.341954 598.745212a31.728485 31.728485 0 0 1 28.392727-33.186909h52.130909v-99.560727H28.734681A28.780606 28.780606 0 0 1 0.341954 432.872727a31.744 31.744 0 0 1 28.392727-33.186909h52.130909v-104.292848H28.734681A28.780606 28.780606 0 0 1 0.341954 262.206061a31.744 31.744 0 0 1 28.392727-33.186909h52.130909v-72.517819A153.832727 153.832727 0 0 1 232.603772 0h671.030303A153.832727 153.832727 0 0 1 1055.372257 156.439273v711.121454A153.832727 153.832727 0 0 1 903.634075 1024z m85.178182-862.161455a93.199515 93.199515 0 0 0-89.05697-93.773575H235.861954a90.158545 90.158545 0 0 0-89.05697 93.773575V865.124848a93.199515 93.199515 0 0 0 89.05697 93.773576h663.893333a90.158545 90.158545 0 0 0 89.05697-93.773576V161.838545z m-124.431515 639.348364h-601.987879a32.581818 32.581818 0 0 1-28.392727-47.414303l303.321212-549.91903a31.030303 31.030303 0 0 1 52.130909 0l303.476364 549.91903a33.869576 33.869576 0 0 1-28.547879 47.414303zM561.05953 279.707152L314.523772 734.813091h497.726061z m28.392727 141.715393v186.445576h-52.130909V421.422545h52.130909z m0 270.723879h-52.130909v-47.398788h52.130909v47.398788z" p-id="4595" fill="#707070"></path></svg>