<svg t="1602214017361" class="icon" viewBox="0 0 1024 1024" version="1.1" xmlns="http://www.w3.org/2000/svg" p-id="28395" width="16" height="16"><path d="M240.128 924.379429h-72.192v-334.262858a343.552 343.552 0 1 1 687.030857 0v334.262858H240.128z m296.228571-539.355429L366.811429 664.137143h135.533714l-33.938286 209.261714L637.805714 594.358857H502.491429l33.865142-209.334857z m259.803429-306.614857a33.499429 33.499429 0 0 1 12.214857 45.641143l-60.928 105.910857-57.563428-33.353143 60.854857-105.910857a33.133714 33.133714 0 0 1 45.275428-12.288h0.146286zM511.341714 0c19.968 0 36.059429 14.994286 36.059429 33.645714V153.6h-72.118857V33.645714c0-18.578286 16.091429-33.572571 36.059428-33.572571zM226.742857 78.409143a33.206857 33.206857 0 0 1 45.421714 12.214857l60.928 105.910857-57.563428 33.353143-60.928-105.984a33.353143 33.353143 0 0 1 12.141714-45.494857zM18.285714 287.744a33.133714 33.133714 0 0 1 45.348572-12.141714l105.618285 61.147428-33.206857 57.782857-105.618285-61.293714a33.353143 33.353143 0 0 1-12.141715-45.494857z m986.331429 0a33.499429 33.499429 0 0 1-12.214857 45.641143l-105.472 61.074286-33.206857-57.782858 105.472-61.220571a33.206857 33.206857 0 0 1 45.348571 12.068571v0.219429zM50.249143 924.379429H972.8a36.205714 36.205714 0 0 1 0 72.265142H50.249143a36.205714 36.205714 0 0 1 0-72.265142z" fill="#13CE66" p-id="28396"></path></svg>