<svg t="1602245312064" class="icon" viewBox="0 0 1024 1024" version="1.1" xmlns="http://www.w3.org/2000/svg" p-id="34218" width="16" height="16"><path d="M320 320m64 0l0 0q64 0 64 64l0 256q0 64-64 64l0 0q-64 0-64-64l0-256q0-64 64-64Z" p-id="34219" fill="#707070"></path><path d="M576 320m64 0l0 0q64 0 64 64l0 256q0 64-64 64l0 0q-64 0-64-64l0-256q0-64 64-64Z" p-id="34220" fill="#707070"></path><path d="M512 1024A512 512 0 1 1 512 0a512 512 0 0 1 0 1024z m0-64A448 448 0 1 0 512 64a448 448 0 0 0 0 896z" p-id="34221" fill="#707070"></path></svg>