<svg t="1602212394791" class="icon" viewBox="0 0 1024 1024" version="1.1" xmlns="http://www.w3.org/2000/svg" p-id="19181" width="16" height="16"><path d="M306.176 686.592h-48.64c-16.896 0-27.136 10.24-27.136 27.648 0 16.896 13.824 27.648 27.136 27.648h503.296c16.896 0 30.72-10.24 30.72-27.648s-13.824-27.648-27.136-27.648H716.8V437.248c0-100.864-76.288-181.248-172.032-181.248h-66.56c-92.672 0-172.032 83.456-172.032 181.248v249.344zM512 1024C229.376 1024 0 794.624 0 512S229.376 0 512 0s512 229.376 512 512-229.376 512-512 512z m-10.752-377.856l13.312-160.256h62.976l-76.288 160.256z m23.552-292.352l-13.312 163.84h-66.56l79.872-163.84z" fill="#F09B31" p-id="19182"></path></svg>