<svg t="1599101304998" class="icon" viewBox="0 0 1024 1024" version="1.1" xmlns="http://www.w3.org/2000/svg" p-id="3597" width="16" height="16"><path d="M902.97344 629.2224v-282.4704c0-42.49088-22.6304-82.4576-59.0592-104.30976l-272.32256-163.38432a121.37984 121.37984 0 0 0-125.17376 0L174.06976 242.44224c-36.41856 21.85728-59.04896 61.81888-59.04896 104.30976v333.50656c0 42.4704 22.6304 82.432 59.04896 104.29952L446.4128 947.968a121.37984 121.37984 0 0 0 125.10208 0.04096l275.24608-163.77344-0.19968-0.33792c6.59968-3.93216 11.23328-10.83904 11.23328-19.07712a22.57408 22.57408 0 0 0-22.59968-22.59968c-4.224 0-7.97184 1.47968-11.35616 3.50208l-0.19968-0.31232-275.31776 163.82464a76.2624 76.2624 0 0 1-78.66368 0L197.31968 745.8304a76.86144 76.86144 0 0 1-37.13536-65.56672V346.752a76.83072 76.83072 0 0 1 37.13536-65.5616L469.6576 117.79072a76.30848 76.30848 0 0 1 78.66368 0l272.33792 163.39968a76.83072 76.83072 0 0 1 37.12 65.5616v282.52672a22.6048 22.6048 0 0 0 45.19424 0c0.01024-0.02048 0-0.03072 0-0.05632z m0 0" fill="#13227a" p-id="3598"></path><path d="M464.27136 720.5888a44.74368 44.74368 0 1 0 89.48736 0 44.74368 44.74368 0 0 0-89.48736 0z m27.3408-87.9872h34.80064a14.9504 14.9504 0 0 0 14.90944-14.91456l9.94304-328.96512c0-15.77984-12.92288-28.70272-28.70784-28.70272h-27.21792c-15.78496 0-28.71296 12.92288-28.71296 28.70272l9.94304 328.96512c0.128 8.20224 6.84032 14.91456 15.04256 14.91456z m0 0" fill="#13227a" p-id="3599"></path></svg>