<svg t="1599554300035" class="icon" viewBox="0 0 1024 1024" version="1.1" xmlns="http://www.w3.org/2000/svg" p-id="11870" width="30" height="30"><path d="M738 960.2H187.3c-44.3 0-80.3-36-80.3-80.3V144.5c0-44.3 36-80.3 80.3-80.3h471.3c22.9 0 41.6 18.6 41.6 41.6s-18.6 41.6-41.6 41.6H187.3l2.8 732.6 547.9-2.8-2.9-364.9c0-22.9 18.6-41.6 41.6-41.6 22.9 0 41.6 18.6 41.6 41.6V880c0 44.2-36 80.2-80.3 80.2z" fill="#ffffff" p-id="11871"></path><path d="M652.6 732.4H272.7c-22.9 0-41.6-18.6-41.6-41.6 0-22.9 18.6-41.6 41.6-41.6h379.9c22.9 0 41.6 18.6 41.6 41.6 0 22.9-18.6 41.6-41.6 41.6zM652.6 553.8H272.7c-22.9 0-41.6-18.6-41.6-41.6 0-22.9 18.6-41.6 41.6-41.6h379.9c22.9 0 41.6 18.6 41.6 41.6s-18.6 41.6-41.6 41.6zM467.9 375.2H272.7c-22.9 0-41.6-18.6-41.6-41.6s18.6-41.6 41.6-41.6h195.2c22.9 0 41.6 18.6 41.6 41.6s-18.7 41.6-41.6 41.6zM631.6 406c-10.6 0-21.3-4.1-29.4-12.2-16.2-16.2-16.2-42.5 0-58.8L844.7 92.6c16.2-16.2 42.5-16.2 58.8 0 16.2 16.2 16.2 42.5 0 58.8L661 393.8c-8.1 8.1-18.7 12.2-29.4 12.2z" fill="#ffffff" p-id="11872"></path></svg>