<svg t="1599554357111" class="icon" viewBox="0 0 1024 1024" version="1.1" xmlns="http://www.w3.org/2000/svg" p-id="13869" width="30" height="30"><path d="M441.37931 353.103448a105.931034 105.931034 0 0 0-97.244689 148.020966l3.319172-4.484414c-115.182345 151.905103-89.617655 285.554759 22.845793 422.311724L52.965517 918.881103a35.310345 35.310345 0 0 0 0 70.62069h918.068966a35.310345 35.310345 0 1 0 0-70.62069H460.694069l-5.614345-5.790896c-117.654069-123.727448-151.269517-232.801103-66.418758-362.213517A105.931034 105.931034 0 1 0 441.37931 353.103448z m489.895724 156.566069l-234.107586 233.931035 25.776552 25.741241a48.16331 48.16331 0 0 0 68.078345 0L956.910345 603.453793a48.16331 48.16331 0 0 0 0-68.113655l-25.670621-25.670621zM383.117241 21.398069l-5.967448 5.508414-159.143724 159.143724a89.017379 89.017379 0 0 0-5.367172 119.84331l5.473103 6.002759 92.866207 92.866207a141.27669 141.27669 0 1 1 184.673103 184.673103l85.698207 85.698207c32.520828 32.556138 84.497655 34.957241 119.878621 5.579035l6.002759-5.508414 159.108413-159.108414a88.982069 88.982069 0 0 0 5.402483-119.913931l-5.437793-6.002759L503.031172 26.941793A89.05269 89.05269 0 0 0 383.117241 21.398069z" p-id="13870" fill="#ffffff"></path></svg>