<svg t="1599554586977" class="icon" viewBox="0 0 1024 1024" version="1.1" xmlns="http://www.w3.org/2000/svg" p-id="25684" width="16" height="16"><path d="M128 128h192v128H128V128z m0 320h192v128H128v-128z m0 320h192v128H128v-128z m480-416h288v320h-288V352z" fill="#ffffff" p-id="25685"></path><path d="M576 528h-96V864h-160v-32h128v-304h-112v-32H448V192h-128V160h160v336h96V320h352v384H576v-176z m32-176v320h288V352h-288z" fill="#ffffff" p-id="25686"></path><path d="M96 96h256v192H96V96z m32 32v128h192V128H128zM96 736h256v192H96v-192z m32 32v128h192v-128H128z" fill="#ffffff" p-id="25687"></path><path d="M96 416h256v192H96v-192z m32 32v128h192v-128H128z" fill="#ffffff" p-id="25688"></path><path d="M640 416h224v32h-224v-32z m0 160h224v32h-224v-32z m0-96h160v32h-160v-32z" fill="#ffffff" p-id="25689"></path></svg>