<svg t="1599554664482" class="icon" viewBox="0 0 1024 1024" version="1.1" xmlns="http://www.w3.org/2000/svg" p-id="27685" width="16" height="16"><path d="M141.824 882.688h740.864c34.304 0 56.32-27.136 49.664-59.904l-66.56-312.32c-6.656-33.28-39.936-59.904-74.24-59.904h-136.704c-23.04 0-37.888-24.576-27.136-45.568 38.912-72.704 70.144-150.016 70.144-202.24 0-102.4-82.944-185.344-185.344-185.344-102.4 0-185.344 82.944-185.344 185.344 0 51.2 31.232 129.536 70.144 202.24 10.752 20.48-3.584 45.056-27.136 45.056H233.984c-34.304 0-67.584 27.136-74.24 59.904l-66.56 312.32c-7.68 33.28 14.336 60.416 48.64 60.416z m-31.744 61.44h803.84c16.896 0 30.72 13.824 30.72 30.72s-13.824 30.72-30.72 30.72h-803.84c-16.896 0-30.72-13.824-30.72-30.72s13.824-30.72 30.72-30.72z m-30.72 0" p-id="27686" fill="#ffffff"></path></svg>