<?xml version="1.0" standalone="no"?><!DOCTYPE svg PUBLIC "-//W3C//DTD SVG 1.1//EN" "http://www.w3.org/Graphics/SVG/1.1/DTD/svg11.dtd"><svg class="icon" width="200px" height="150.04px" viewBox="0 0 1365 1024" version="1.1" xmlns="http://www.w3.org/2000/svg"><path fill="#dbdbdb" d="M1230.074581 1023.992719h-91.925662a90.765215 90.765215 0 0 1-91.925663-92.585525l1.592772-44.005998H318.099198l0.455078 44.005998A89.582013 89.582013 0 0 1 228.221385 1023.992719H136.295722A89.832306 89.832306 0 0 1 45.507754 931.407194v-224.216702a65.781458 65.781458 0 0 1 0.910155-11.376939A124.577476 124.577476 0 0 1 45.507754 680.18164l0.227538-3.04902 1.137694-156.455657c0-22.8904 23.208954-71.856743 29.124963-92.67654C39.136668 426.04359 0 395.280348 0 359.465746V331.364708c0-37.066065 31.40035-57.749339 69.854402-57.749339h113.314306l44.142521-137.387908C248.017257 38.08999 324.242745 0.682616 426.862729 0.682616l512.644845-0.70537c104.667833 0 178.845472 127.876788 178.845472 127.876788l44.142521 144.100302 134.93049 1.433494a60.138496 60.138496 0 0 1 47.328063 10.44403 65.553919 65.553919 0 0 1 20.47849 47.555602V359.579515c0 35.45054-40.046823 64.575502-76.453027 67.032922 6.143547 20.865305 29.124962 74.132131 29.124963 97.02253l1.365232 156.660442c0 4.823822-0.227539 9.943444-0.682616 15.518144a99.707488 99.707488 0 0 1 0.682616 11.376939v224.216702A88.74012 88.74012 0 0 1 1230.074581 1023.992719z m-955.207749-182.440585l816.636639 0.728124v89.126936a81.23134 81.23134 0 0 0 46.645448 45.667031h91.925662a75.952441 75.952441 0 0 0 43.459905-45.667031l3.185543-224.216702a17.770778 17.770778 0 0 0-0.682617-4.186714l-0.910155-5.142376 0.682617-5.187884c0.455078-4.232221 0.682616-7.872841 0.910155-11.058384l-3.640621-187.742238c0-29.215978-42.322211-54.973366-55.064382-78.773921l-22.526338-23.755047 124.918784-3.686129v-69.422078l-143.576963 0.70537-38.909129-0.432323-14.107404-4.391498-44.597598-147.331353-11.1494-15.131328a122.529627 122.529627 0 0 0-128.559404-106.124081H387.043445c-97.159054 0-116.727388 73.290237-123.098474 104.667833l-0.227539 0.819139-35.496047 168.537966-38.454052-0.728124-146.307428-0.70537 1.365232 38.840868L45.507754 386.884168h113.769384l-11.1494 28.396838C135.385567 438.990546 91.015507 464.679673 91.015507 493.850143l-0.227538 3.026265-1.137694 184.715972a94.815405 94.815405 0 0 0 0.682616 10.876353l0.682616 5.233392-0.910155 5.16513c-0.227539 1.843064-0.455078 3.322066-0.455077 4.300483l0.682616 223.488578a81.208586 81.208586 0 0 0 45.962831 46.395155h91.925663a81.913957 81.913957 0 0 0 46.645447-45.667031v-89.85506z m662.365354-432.960768H410.02486c-52.561455 0-109.673686-33.288922-114.224461-89.172443l-0.455078-4.550775 11.376939-59.546896 34.813431-91.311308a75.997949 75.997949 0 0 1 21.843722-40.570162 83.87079 83.87079 0 0 0 7.053702-8.054873h9.10155l589.097871-1.433494 9.101551 1.52451c2.502926 3.208297 4.778314 5.847746 6.826163 8.214149a76.908104 76.908104 0 0 1 20.706028 38.158252l36.406203 96.476438 4.778314 56.429614 0.682616 4.550775c-4.323237 55.974537-57.33977 89.263459-109.901225 89.263459zM338.12261 318.622537c5.005853 19.795873 49.375913 46.031093 71.90225 46.031093l530.16533 0.70537A85.145007 85.145007 0 0 0 1004.811201 318.622537l-10.011706-45.007168-36.633742-96.5447-0.455077-2.52568a89.513751 89.513751 0 0 0-18.430641-16.109745H412.072709a93.632203 93.632203 0 0 0-21.161105 16.473807l-1.137694 5.142376-38.681591 93.632203z m-7.053702 412.323002c-50.286068 0-75.77041-17.110915-75.77041-65.44015s25.484342-77.203904 75.77041-77.203904 70.537018 28.851916 70.537018 77.203904-20.023412 65.508411-70.537018 65.508412z m509.004224-45.348476c0 14.403204-12.059555 17.497731-27.077113 17.497731H557.242443c-14.79002 0-27.077113-3.094527-27.077113-17.497731v-27.623207c0-14.357696 12.287093-18.885718 27.077113-18.885718h255.753576c15.017559 0 27.077113 4.550775 27.077113 18.885718v27.623207z m195.000725 45.712538c-50.286068 0-74.860255-17.474977-74.860255-65.804212s24.574187-76.839842 74.860255-76.839842 75.087794 28.487854 75.087793 76.839842-24.801726 65.872473-75.087793 65.872474z" /></svg>